#!OML:ASF H:\ManfredObstacles\Project 1\Capture day 1\Session 1\Male.ASF
:FULLY-SPECIFIED
:DEGREES
803
root -2.17679 16.6213 -26.7783 -164.464 -12.22 -171.57
lowerback -13.3068 -2.65439 6.37114
upperback 0.34098 -5.05289 3.58228
thorax 7.63609 -2.38051 -0.762901
lowerneck -0.347933 -1.72273 -6.34063
upperneck -15.8772 -2.28604 12.3562
head -4.40251 -1.99467 5.03944
rclavicle 7.25564e-014 -3.55825e-014
rhumerus -25.4014 -17.497 -83.793
rradius 23.8386
rwrist 37.2336
rhand -2.79304 -2.34831
rfingers 7.12502
rthumb 22.9126 -31.0069
lclavicle 7.25564e-014 -3.55825e-014
lhumerus -18.8043 6.72529 92.0539
lradius 19.7373
lwrist -27.3879
lhand -7.22173 7.41352
lfingers 7.12502
lthumb 18.6576 36.5388
rfemur -36.395 -8.40625 33.8051
rtibia 22.9552
rfoot 175.462 -161.388
rtoes 15.5155
lfemur 4.66484 -4.51922 -7.74872
ltibia 2.55374
lfoot 8.22875 -13.1145
ltoes -1.42362
804
root -2.18254 16.6342 -26.79 -164.351 -12.055 -171.569
lowerback -13.4702 -2.61367 6.44337
upperback 0.351824 -5.02821 3.57633
thorax 7.73559 -2.36246 -0.814619
lowerneck -0.253601 -1.68179 -6.30471
upperneck -16.1264 -2.24297 12.3269
head -4.49983 -1.99186 5.0338
rclavicle 6.05548e-014 -1.56046e-014
rhumerus -25.5383 -17.0352 -83.9853
rradius 24.2764
rwrist 36.8894
rhand -2.53762 -2.63019
rfingers 7.12502
rthumb 23.1577 -31.2582
lclavicle 6.05548e-014 -1.56046e-014
lhumerus -18.902 6.31517 92.355
lradius 20.0309
lwrist -27.2344
lhand -7.22607 7.33095
lfingers 7.12502
lthumb 18.6534 36.4566
rfemur -36.6177 -8.51376 33.8959
rtibia 23.0689
rfoot 175.785 -161.081
rtoes 14.9132
lfemur 5.08134 -4.33908 -7.80067
ltibia 1.64601
lfoot 8.61429 -12.9809
ltoes -2.79729
805
root -2.18686 16.642 -26.7991 -164.131 -11.939 -171.645
lowerback -13.7139 -2.60609 6.40303
upperback 0.335474 -5.03775 3.5882
thorax 7.86015 -2.36564 -0.795798
lowerneck -0.320974 -1.65689 -6.23675
upperneck -16.2251 -2.22501 12.2401
head -4.52323 -1.98927 4.99652
rclavicle 2.50469e-014 -5.84427e-014
rhumerus -25.7245 -16.7726 -84.0881
rradius 24.782
rwrist 36.6231
rhand -2.37238 -2.86606
rfingers 7.12502
rthumb 23.3162 -31.4741
lclavicle 2.50469e-014 -5.84427e-014
lhumerus -19.0122 6.00646 92.647
lradius 20.2514
lwrist -27.1606
lhand -7.31887 7.38143
lfingers 7.12502
lthumb 18.5641 36.5156
rfemur -36.9291 -8.66557 33.9463
rtibia 23.1922
rfoot 175.903 -160.767
rtoes 14.4089
lfemur 5.72185 -4.20705 -7.89089
ltibia 2.54444e-014
lfoot 9.33485 -12.7025
ltoes -3.63631
806
root -2.18856 16.6378 -26.8054 -164.049 -11.8766 -171.72
lowerback -13.826 -2.63814 6.31964
upperback 0.346852 -5.0808 3.6101
thorax 7.94289 -2.38741 -0.741831
lowerneck -0.393651 -3.31561 -6.2071
upperneck -15.8795 -1.85049 12.5694
head -4.39827 -0.691663 4.98362
rclavicle -2.79292e-014 7.95139e-016
rhumerus -25.8531 -16.8594 -84.029
rradius 24.897
rwrist 36.9449
rhand -2.44953 -2.70208
rfingers 7.12502
rthumb 23.2422 -31.3195
lclavicle -2.79292e-014 7.95139e-016
lhumerus -19.08 5.53568 92.9125
lradius 20.3092
lwrist -26.877
lhand -7.60585 7.42353
lfingers 7.12502
lthumb 18.2881 36.5838
rfemur -37.022 -8.6799 33.8853
rtibia 23.308
rfoot 175.678 -160.668
rtoes 14.2143
lfemur 5.65382 -4.15331 -7.99099
ltibia -3.18055e-014
lfoot 9.44221 -12.6255
ltoes -2.7406
807
root -2.1895 16.637 -26.8166 -164.012 -11.8416 -171.78
lowerback -13.9419 -2.70345 6.22838
upperback 0.353846 -5.16897 3.6476
thorax 8.0232 -2.43235 -0.676012
lowerneck -0.454391 -3.30306 -6.24127
upperneck -15.787 -1.84767 12.5853
head -4.35944 -0.689902 4.99161
rclavicle 6.98231e-015 1.14301e-014
rhumerus -25.8576 -17.0207 -83.8983
rradius 24.6223
rwrist 37.4784
rhand -2.56326 -2.45371
rfingers 7.12502
rthumb 23.1331 -31.0848
lclavicle 6.98231e-015 1.14301e-014
lhumerus -19.2205 5.22735 93.1001
lradius 20.31
lwrist -26.6365
lhand -7.90785 7.34045
lfingers 7.12502
lthumb 17.9975 36.5277
rfemur -37.0278 -8.70636 33.8305
rtibia 23.3803
rfoot 175.503 -160.59
rtoes 14.1416
lfemur 5.66331 -4.1307 -8.06102
ltibia 3.18055e-014
lfoot 9.57042 -12.6217
ltoes -1.86351
808
root -2.18786 16.6397 -26.8288 -164.156 -11.8013 -171.898
lowerback -13.8179 -2.80904 6.04696
upperback 0.393937 -5.26713 3.66089
thorax 8.00805 -2.48584 -0.574141
lowerneck -0.597641 -3.28047 -6.26799
upperneck -15.6049 -1.8407 12.5921
head -4.28036 -0.683959 4.99205
rclavicle -2.89853e-014 3.66758e-014
rhumerus -25.7698 -17.2568 -83.7698
rradius 24.1915
rwrist 37.8942
rhand -2.59674 -2.34201
rfingers 7.12502
rthumb 23.1009 -30.9772
lclavicle -2.89853e-014 3.66758e-014
lhumerus -19.4078 5.31096 93.1566
lradius 20.2742
lwrist -26.7493
lhand -7.89348 7.28846
lfingers 7.12502
lthumb 18.0113 36.4745
rfemur -36.8189 -8.85932 33.7236
rtibia 23.4395
rfoot 175.391 -160.474
rtoes 14.5283
lfemur 5.89436 -4.15805 -8.20009
ltibia 2.22639e-014
lfoot 9.53773 -12.7587
ltoes -2.43824
